<?xml version="1.0" encoding="utf-8"?>
<!-- Generator: Adobe Illustrator 16.0.0, SVG Export Plug-In . SVG Version: 6.00 Build 0)  -->
<!DOCTYPE svg PUBLIC "-//W3C//DTD SVG 1.1//EN" "http://www.w3.org/Graphics/SVG/1.1/DTD/svg11.dtd">
<svg version="1.1" id="logo" xmlns="http://www.w3.org/2000/svg" xmlns:xlink="http://www.w3.org/1999/xlink" x="0px" y="0px"
	 width="490px" height="52px" viewBox="0 0 490 52" enable-background="new 0 0 490 52" xml:space="preserve">
<g>
	<rect x="436.394" y="8.509" fill="#21409A" width="1.586" height="33.909"/>
	<g>
		<path fill="#21409A" d="M444.041,21.385l2.762,2.404c4.96,0,11.252-2.656,12.891-5.967c1.639,3.271,7.975,5.967,12.893,5.967
			l2.766-2.404c-5.914-0.043-12.726-4.472-12.726-9.483v-0.205h10.261V8.509h-26.381v3.188h10.26v0.205
			C456.766,16.951,449.993,21.341,444.041,21.385z"/>
		<polygon fill="#21409A" points="443.006,27.386 443.006,30.534 456.805,30.534 456.805,42.418 462.626,42.418 462.626,30.534 
			476.387,30.534 476.387,27.386 		"/>
	</g>
	<rect x="481.413" y="8.509" fill="#21409A" width="1.587" height="33.909"/>
</g>
<g>
	<g>
		<path fill="#21409A" d="M420.518,8.137v31.09h-12.463c-0.464,0-0.839-0.375-0.839-0.841v-7.438h-5.822v8.93
			c0,1.405,1.129,2.54,2.516,2.54h22.424v-2.002V8.137H420.518z"/>
		<path fill="#21409A" d="M406.201,21.756c1.03,2.939,5.478,5.963,9.138,6.299l2.8-2.362c-4.654-0.875-8.964-5.139-8.964-11.473
			V8.672h-5.913v5.548c0,6.25-4.267,10.599-9.009,11.473l2.889,2.362C400.723,27.677,405.293,24.695,406.201,21.756z"/>
	</g>
	<g>
		<path fill="#21409A" d="M374.389,29.125c-5.134,0-9.268,3.237-9.268,7.333c0,4.14,4.134,7.412,9.268,7.412
			c5.084,0,9.229-3.272,9.229-7.412C383.617,32.362,379.473,29.125,374.389,29.125z M374.389,40.764
			c-1.896,0-3.444-2.071-3.444-4.306c0-2.156,1.548-4.262,3.444-4.262c1.854,0,3.455,2.106,3.455,4.262
			C377.844,38.693,376.243,40.764,374.389,40.764z"/>
		<path fill="#21409A" d="M377.325,24.823v-2.568h10.337v-3.066h-19.194c-0.459,0-0.834-0.379-0.834-0.848v-1.383h19.469V13.85
			h-19.469v-2.32h19.638V8.425h-25.464v11.291c0,1.402,1.129,2.54,2.516,2.54h7.181v2.568h-13.586v3.145h32.986v-3.145H377.325z"/>
	</g>
	<path fill="#21409A" d="M341.591,27.715h7.3c1.383,0,2.511-1.13,2.511-2.533V8.634h-5.821v5.839h-13.844V8.634h-5.822v16.548
		c0,1.399,1.115,2.533,2.506,2.533h7.34v6.462h-13.018v3.148h31.827v-3.148h-12.979V27.715z M332.565,24.575
		c-0.46,0-0.829-0.384-0.829-0.848v-6.114h13.844v6.114c0,0.464-0.877,0.848-1.34,0.848H332.565z"/>
	<g>
		<path fill="#21409A" d="M311.899,8.215v7.124h-6.818v3.145h6.818v10.021c-1.19-0.426-2.49-0.662-3.873-0.662
			c-5.347,0-9.65,3.559-9.65,7.996c0,4.425,4.303,7.945,9.65,7.945c5.392,0,9.69-3.52,9.69-7.945v-0.004V8.215H311.899z
			 M308.026,40.555c-2.048,0-3.872-2.272-3.872-4.716c0-2.49,1.824-4.809,3.872-4.809c2.081,0,3.866,2.319,3.866,4.809
			C311.893,38.283,310.107,40.555,308.026,40.555z"/>
		<path fill="#21409A" d="M306.851,26.646l2.843-2.324c-4.697-0.87-9.003-5.173-9.003-11.508v-0.701h6.636V8.963h-19.102v3.151
			h6.597v0.701c0,6.292-4.268,10.638-9.007,11.508l2.843,2.324c3.621-0.333,8.148-3.314,9.099-6.253
			C298.749,23.332,303.23,26.356,306.851,26.646z"/>
	</g>
	<path fill="#21409A" d="M276.64,8.137v17.968c-1.379,0.499-3.452,0.832-5.819,0.832h-10.072c-0.467,0-0.835-0.387-0.835-0.848
		v-4.914h11.896v-3.187h-11.896v-5.588h12.071V9.253h-17.898v18.331c0,1.402,1.126,2.543,2.517,2.543l13.872-0.003
		c2.456,0,4.613-0.58,6.165-1.367v13.661h5.819V8.137H276.64z"/>
	<g>
		<path fill="#21409A" d="M243.627,8.137v21.027h-19.615v10.717c0,1.402,1.125,2.536,2.512,2.536h20.027
			c1.385,0,2.506-1.134,2.506-2.536V31.48v-2.315V8.137H243.627z M243.239,38.386c0,0.465-0.373,0.841-0.835,0.841h-11.736
			c-0.464,0-0.836-0.375-0.836-0.841v-6.071h13.407V38.386z"/>
		<path fill="#21409A" d="M234.184,18.945h2.071v7.992h5.436V8.134h-5.436v7.621h-2.157c-0.904-3.811-4.482-6.703-8.794-6.703
			c-4.958,0-9.017,3.85-9.017,8.566c0,4.677,4.059,8.484,9.017,8.484C229.789,26.101,233.542,22.999,234.184,18.945z
			 M221.766,17.617c0-2.978,1.64-5.383,3.538-5.383c1.893,0,3.532,2.405,3.532,5.383c0,2.981-1.64,5.339-3.532,5.339
			C223.405,22.957,221.766,20.598,221.766,17.617z"/>
	</g>
	<g>
		<path fill="#21409A" d="M207.119,8.134v19.631c-3.202-1.339-6.804-6.179-6.804-12.301V8.882h-5.662v6.582
			c0,6.544-4.117,11.678-7.517,12.549l2.749,2.401c2.482-0.332,6.764-3.644,7.599-6.788c0.917,3.145,5.161,6.501,7.64,6.788
			l1.995-1.77v13.773h5.82V8.134H207.119z"/>
		<path fill="#21409A" d="M190.61,23.173c2.093-3.69,2.262-6.458,2.262-8.244V8.882h-5.662v6.582c0,6.54-4.117,11.678-7.513,12.549
			l2.745,2.397C185.217,29.69,188.793,26.372,190.61,23.173z"/>
	</g>
</g>
<g>
	<polygon fill="#21409A" points="99.417,6.004 111.288,14.802 125.14,14.802 125.14,46 137.008,46 137.008,14.802 150.859,14.802 
		162.733,6.004 	"/>
	<g>
		<polygon fill="#21409A" points="92.783,6.004 63.102,6.004 51.228,14.802 51.228,46 63.102,46 63.102,14.802 92.783,14.802 
			92.783,46 104.653,46 104.653,14.802 		"/>
		<rect x="72.008" y="18.798" fill="#21409A" width="11.875" height="27.202"/>
	</g>
	<polygon fill="#21409A" points="18.874,14.802 44.599,14.802 56.468,6 18.874,6 7,14.802 7,37.202 18.874,46 47.274,46 
		47.274,37.202 18.874,37.202 	"/>
</g>
</svg>
